<svg width="302" height="72" viewBox="0 0 302 72" fill="none" xmlns="http://www.w3.org/2000/svg">
<path d="M21.376 56.32C18.0053 56.32 14.9973 55.552 12.352 54.016C9.74933 52.4373 7.68 50.304 6.144 47.616C4.65067 44.928 3.904 41.8987 3.904 38.528C3.904 35.1147 4.62933 32.064 6.08 29.376C7.53067 26.688 9.51467 24.576 12.032 23.04C14.5493 21.4613 17.4507 20.672 20.736 20.672C23.3387 20.672 25.728 21.184 27.904 22.208C30.1227 23.232 32.064 24.768 33.728 26.816C34.1973 27.328 34.368 27.8827 34.24 28.48C34.112 29.0347 33.7493 29.5253 33.152 29.952C32.6827 30.2933 32.1493 30.4213 31.552 30.336C30.9973 30.208 30.5067 29.888 30.08 29.376C27.6053 26.56 24.4907 25.152 20.736 25.152C18.3467 25.152 16.2347 25.728 14.4 26.88C12.608 28.032 11.2 29.6107 10.176 31.616C9.19467 33.6213 8.704 35.9253 8.704 38.528C8.704 41.088 9.23733 43.3707 10.304 45.376C11.3707 47.3813 12.864 48.96 14.784 50.112C16.704 51.264 18.9013 51.84 21.376 51.84C23.04 51.84 24.5547 51.6267 25.92 51.2C27.328 50.7307 28.5653 50.0267 29.632 49.088C30.144 48.6613 30.6773 48.4267 31.232 48.384C31.7867 48.3413 32.2987 48.512 32.768 48.896C33.28 49.3653 33.5573 49.8987 33.6 50.496C33.6853 51.0933 33.4933 51.6053 33.024 52.032C29.9093 54.8907 26.0267 56.32 21.376 56.32ZM49.8385 71.232C49.4972 71.232 49.1132 71.1467 48.6865 70.976C47.2358 70.336 46.8305 69.312 47.4705 67.904L68.1425 22.336C68.7825 20.9707 69.8065 20.5867 71.2145 21.184C72.6652 21.7813 73.0705 22.784 72.4305 24.192L51.6945 69.76C51.2678 70.7413 50.6492 71.232 49.8385 71.232ZM56.9425 54.912C56.3025 55.2107 55.7052 55.2747 55.1505 55.104C54.5958 54.8907 54.1478 54.464 53.8065 53.824L39.5345 24.256C39.2358 23.616 39.1932 23.0187 39.4065 22.464C39.6198 21.9093 40.0465 21.4827 40.6865 21.184C41.3265 20.8853 41.9238 20.8427 42.4785 21.056C43.0332 21.2267 43.4598 21.632 43.7585 22.272L57.7745 51.84C58.1158 52.48 58.2225 53.0773 58.0945 53.632C57.9665 54.1867 57.5825 54.6133 56.9425 54.912ZM96.613 56.32C93.285 56.32 90.277 55.552 87.589 54.016C84.9437 52.48 82.8317 50.3893 81.253 47.744C79.717 45.056 78.9277 42.048 78.885 38.72V8.512C78.885 7.744 79.0983 7.14666 79.525 6.72C79.9943 6.25067 80.613 6.016 81.381 6.016C82.1063 6.016 82.6823 6.25067 83.109 6.72C83.5783 7.14666 83.813 7.744 83.813 8.512V27.328C85.221 25.3227 87.077 23.7227 89.381 22.528C91.7277 21.2907 94.3303 20.672 97.189 20.672C100.474 20.672 103.418 21.4613 106.021 23.04C108.624 24.576 110.672 26.688 112.165 29.376C113.701 32.064 114.469 35.0933 114.469 38.464C114.469 41.8773 113.68 44.928 112.101 47.616C110.565 50.304 108.453 52.4373 105.765 54.016C103.077 55.552 100.026 56.32 96.613 56.32ZM96.613 51.84C99.0877 51.84 101.306 51.264 103.269 50.112C105.232 48.9173 106.768 47.3173 107.877 45.312C109.029 43.3067 109.605 41.024 109.605 38.464C109.605 35.9467 109.029 33.6853 107.877 31.68C106.768 29.632 105.232 28.032 103.269 26.88C101.306 25.728 99.0877 25.152 96.613 25.152C94.181 25.152 91.9837 25.728 90.021 26.88C88.0583 28.032 86.5223 29.632 85.413 31.68C84.3037 33.6853 83.749 35.9467 83.749 38.464C83.749 41.024 84.3037 43.3067 85.413 45.312C86.5223 47.3173 88.0583 48.9173 90.021 50.112C91.9837 51.264 94.181 51.84 96.613 51.84ZM140.007 56.32C136.551 56.32 133.479 55.5733 130.791 54.08C128.146 52.544 126.055 50.432 124.519 47.744C123.026 45.056 122.279 41.984 122.279 38.528C122.279 35.0293 122.983 31.9573 124.391 29.312C125.842 26.624 127.826 24.512 130.343 22.976C132.86 21.44 135.762 20.672 139.047 20.672C142.29 20.672 145.106 21.4187 147.495 22.912C149.927 24.3627 151.804 26.3893 153.127 28.992C154.45 31.5947 155.111 34.56 155.111 37.888C155.111 38.5707 154.898 39.1253 154.471 39.552C154.044 39.936 153.49 40.128 152.807 40.128H125.607V36.032H153.319L150.567 38.016C150.61 35.5413 150.162 33.3227 149.223 31.36C148.284 29.3973 146.94 27.8613 145.191 26.752C143.484 25.6427 141.436 25.088 139.047 25.088C136.615 25.088 134.482 25.664 132.647 26.816C130.812 27.968 129.383 29.568 128.359 31.616C127.378 33.6213 126.887 35.9253 126.887 38.528C126.887 41.1307 127.442 43.4347 128.551 45.44C129.703 47.4453 131.26 49.024 133.223 50.176C135.186 51.328 137.447 51.904 140.007 51.904C141.543 51.904 143.079 51.648 144.615 51.136C146.194 50.5813 147.452 49.8987 148.391 49.088C148.86 48.704 149.394 48.512 149.991 48.512C150.588 48.4693 151.1 48.6187 151.527 48.96C152.082 49.472 152.359 50.0267 152.359 50.624C152.402 51.2213 152.167 51.7333 151.655 52.16C150.247 53.3547 148.455 54.3573 146.279 55.168C144.103 55.936 142.012 56.32 140.007 56.32ZM165.496 34.432C165.624 31.7867 166.306 29.4187 167.544 27.328C168.824 25.2373 170.466 23.5947 172.472 22.4C174.52 21.2053 176.781 20.608 179.256 20.608C181.218 20.608 182.733 20.8853 183.8 21.44C184.866 21.9947 185.272 22.8053 185.016 23.872C184.845 24.512 184.546 24.9387 184.12 25.152C183.736 25.3653 183.245 25.4507 182.648 25.408C182.093 25.3653 181.453 25.3227 180.728 25.28C178.338 25.0667 176.205 25.3227 174.328 26.048C172.493 26.7307 171.021 27.7973 169.912 29.248C168.845 30.6987 168.312 32.4267 168.312 34.432H165.496ZM165.88 56C165.112 56 164.514 55.7867 164.088 55.36C163.661 54.9333 163.448 54.336 163.448 53.568V23.424C163.448 22.656 163.661 22.0587 164.088 21.632C164.514 21.2053 165.112 20.992 165.88 20.992C166.648 20.992 167.245 21.2053 167.672 21.632C168.098 22.0587 168.312 22.656 168.312 23.424V53.568C168.312 54.336 168.098 54.9333 167.672 55.36C167.245 55.7867 166.648 56 165.88 56ZM205.622 56.32C202.336 56.32 199.392 55.552 196.79 54.016C194.187 52.4373 192.117 50.304 190.582 47.616C189.088 44.928 188.342 41.8987 188.342 38.528C188.342 35.1147 189.11 32.064 190.646 29.376C192.224 26.688 194.358 24.576 197.046 23.04C199.734 21.4613 202.763 20.672 206.134 20.672C209.504 20.672 212.512 21.4613 215.158 23.04C217.846 24.576 219.958 26.688 221.494 29.376C223.072 32.064 223.883 35.1147 223.926 38.528L221.942 40.064C221.942 43.136 221.216 45.9093 219.766 48.384C218.358 50.816 216.416 52.7573 213.942 54.208C211.51 55.616 208.736 56.32 205.622 56.32ZM206.134 51.84C208.608 51.84 210.806 51.264 212.726 50.112C214.688 48.96 216.224 47.3813 217.333 45.376C218.486 43.328 219.062 41.0453 219.062 38.528C219.062 35.968 218.486 33.6853 217.333 31.68C216.224 29.6747 214.688 28.096 212.726 26.944C210.806 25.7493 208.608 25.152 206.134 25.152C203.702 25.152 201.504 25.7493 199.542 26.944C197.579 28.096 196.022 29.6747 194.87 31.68C193.718 33.6853 193.142 35.968 193.142 38.528C193.142 41.0453 193.718 43.328 194.87 45.376C196.022 47.3813 197.579 48.96 199.542 50.112C201.504 51.264 203.702 51.84 206.134 51.84ZM221.43 56C220.704 56 220.107 55.7867 219.638 55.36C219.168 54.8907 218.934 54.2933 218.934 53.568V42.624L220.15 37.568L223.926 38.528V53.568C223.926 54.2933 223.691 54.8907 223.222 55.36C222.752 55.7867 222.155 56 221.43 56ZM245.734 56.32C243.217 56.32 240.721 55.8933 238.246 55.04C235.771 54.1867 233.766 52.9067 232.23 51.2C231.761 50.688 231.569 50.112 231.654 49.472C231.739 48.832 232.059 48.2773 232.614 47.808C233.211 47.3813 233.83 47.2107 234.47 47.296C235.11 47.3813 235.643 47.6587 236.07 48.128C237.094 49.3227 238.438 50.24 240.102 50.88C241.809 51.52 243.686 51.84 245.734 51.84C248.891 51.84 251.174 51.3067 252.582 50.24C253.99 49.1307 254.715 47.808 254.758 46.272C254.758 44.736 254.033 43.4773 252.582 42.496C251.131 41.472 248.742 40.6827 245.414 40.128C241.105 39.4453 237.947 38.2507 235.942 36.544C233.937 34.8373 232.934 32.8107 232.934 30.464C232.934 28.288 233.51 26.4747 234.662 25.024C235.814 23.5733 237.35 22.4853 239.27 21.76C241.19 21.0347 243.302 20.672 245.606 20.672C248.465 20.672 250.918 21.1627 252.966 22.144C255.057 23.1253 256.742 24.448 258.022 26.112C258.449 26.6667 258.619 27.2427 258.534 27.84C258.449 28.4373 258.107 28.928 257.51 29.312C256.998 29.6107 256.401 29.7173 255.718 29.632C255.078 29.504 254.523 29.184 254.054 28.672C252.987 27.4347 251.75 26.5387 250.342 25.984C248.934 25.3867 247.313 25.088 245.478 25.088C243.131 25.088 241.254 25.5787 239.846 26.56C238.438 27.4987 237.734 28.6933 237.734 30.144C237.734 31.1253 237.99 31.9787 238.502 32.704C239.057 33.4293 239.974 34.0693 241.254 34.624C242.577 35.1787 244.411 35.648 246.758 36.032C249.958 36.544 252.475 37.312 254.31 38.336C256.187 39.3173 257.51 40.4907 258.278 41.856C259.089 43.1787 259.494 44.6293 259.494 46.208C259.494 48.2133 258.897 49.984 257.702 51.52C256.55 53.0133 254.929 54.1867 252.838 55.04C250.79 55.8933 248.422 56.32 245.734 56.32ZM283.882 56.32C280.426 56.32 277.354 55.5733 274.666 54.08C272.021 52.544 269.93 50.432 268.394 47.744C266.901 45.056 266.154 41.984 266.154 38.528C266.154 35.0293 266.858 31.9573 268.266 29.312C269.717 26.624 271.701 24.512 274.218 22.976C276.735 21.44 279.637 20.672 282.922 20.672C286.165 20.672 288.981 21.4187 291.37 22.912C293.802 24.3627 295.679 26.3893 297.002 28.992C298.325 31.5947 298.986 34.56 298.986 37.888C298.986 38.5707 298.773 39.1253 298.346 39.552C297.919 39.936 297.365 40.128 296.682 40.128H269.482V36.032H297.194L294.442 38.016C294.485 35.5413 294.037 33.3227 293.098 31.36C292.159 29.3973 290.815 27.8613 289.066 26.752C287.359 25.6427 285.311 25.088 282.922 25.088C280.49 25.088 278.357 25.664 276.522 26.816C274.687 27.968 273.258 29.568 272.234 31.616C271.253 33.6213 270.762 35.9253 270.762 38.528C270.762 41.1307 271.317 43.4347 272.426 45.44C273.578 47.4453 275.135 49.024 277.098 50.176C279.061 51.328 281.322 51.904 283.882 51.904C285.418 51.904 286.954 51.648 288.49 51.136C290.069 50.5813 291.327 49.8987 292.266 49.088C292.735 48.704 293.269 48.512 293.866 48.512C294.463 48.4693 294.975 48.6187 295.402 48.96C295.957 49.472 296.234 50.0267 296.234 50.624C296.277 51.2213 296.042 51.7333 295.53 52.16C294.122 53.3547 292.33 54.3573 290.154 55.168C287.978 55.936 285.887 56.32 283.882 56.32Z" fill="black"/>
<path d="M215 49H223V54C223 55.1046 222.105 56 221 56H215V49Z" fill="black"/>
<rect x="207" y="53" width="12" height="3" fill="black"/>
</svg>
