<?xml version="1.0" encoding="UTF-8"?>
<!DOCTYPE svg PUBLIC "-//W3C//DTD SVG 1.1//EN" "http://www.w3.org/Graphics/SVG/1.1/DTD/svg11.dtd">
<svg xmlns="http://www.w3.org/2000/svg" version="1.1" width="612px" height="212px" style="shape-rendering:geometricPrecision; text-rendering:geometricPrecision; image-rendering:optimizeQuality; fill-rule:evenodd; clip-rule:evenodd" xmlns:xlink="http://www.w3.org/1999/xlink">
<g><path style="opacity:1" fill="#1f518e" d="M -0.5,-0.5 C 203.5,-0.5 407.5,-0.5 611.5,-0.5C 611.5,70.1667 611.5,140.833 611.5,211.5C 407.5,211.5 203.5,211.5 -0.5,211.5C -0.5,140.833 -0.5,70.1667 -0.5,-0.5 Z"/></g>
<g><path style="opacity:1" fill="#fafbfc" d="M 55.5,34.5 C 68.1706,32.833 79.504,35.833 89.5,43.5C 92.113,46.3714 92.113,49.2047 89.5,52C 88.5,52.1667 87.5,52.3333 86.5,52.5C 81.3389,49.7542 76.0056,47.2542 70.5,45C 51.763,42.7891 39.263,50.6224 33,68.5C 29.5335,89.4227 37.7001,103.256 57.5,110C 67.0824,111.14 75.7491,108.807 83.5,103C 88.0678,101.35 90.7344,102.85 91.5,107.5C 88.835,112.861 84.5017,116.361 78.5,118C 48.4578,125.405 29.6244,114.238 22,84.5C 19.9484,58.7561 31.1151,42.0895 55.5,34.5 Z"/></g>
<g><path style="opacity:1" fill="#fafbfc" d="M 183.5,35.5 C 186.602,35.154 189.435,35.8207 192,37.5C 192.333,48.1667 192.667,58.8333 193,69.5C 204.576,58.8986 217.076,57.7319 230.5,66C 242.823,78.3848 244.657,92.2181 236,107.5C 231.121,114.033 224.621,118.199 216.5,120C 205.833,120.667 195.167,120.667 184.5,120C 183.667,119.167 182.833,118.333 182,117.5C 181.333,90.8333 181.333,64.1667 182,37.5C 182.717,36.9558 183.217,36.2891 183.5,35.5 Z"/></g>
<g><path style="opacity:1" fill="#f6f8fa" d="M 283.5,60.5 C 303.993,57.8394 315.66,66.6727 318.5,87C 318.919,89.981 317.919,92.3144 315.5,94C 301.155,94.1672 286.822,94.6672 272.5,95.5C 276.845,107.843 285.511,112.677 298.5,110C 301.446,109.194 304.112,107.861 306.5,106C 314.902,106.045 316.235,109.045 310.5,115C 296.126,123.177 282.626,122.011 270,111.5C 261.195,99.1566 260.195,86.1566 267,72.5C 271.281,66.7045 276.781,62.7045 283.5,60.5 Z"/></g>
<g><path style="opacity:1" fill="#f8f9fb" d="M 342.5,60.5 C 348.211,59.3797 351.044,61.713 351,67.5C 355.669,62.3309 361.503,59.9976 368.5,60.5C 371.924,60.4817 375.257,60.9817 378.5,62C 381.167,64.6667 381.167,67.3333 378.5,70C 372.838,69.9269 367.171,69.9269 361.5,70C 357.726,71.3019 354.559,73.4686 352,76.5C 350.702,90.0727 350.035,103.739 350,117.5C 347.503,119.478 344.669,119.978 341.5,119C 340.874,118.25 340.374,117.416 340,116.5C 339.333,98.8333 339.333,81.1667 340,63.5C 341.045,62.6266 341.878,61.6266 342.5,60.5 Z"/></g>
<g><path style="opacity:1" fill="#f8fafb" d="M 414.5,60.5 C 433.683,58.2009 446.183,66.2009 452,84.5C 452.667,95.1667 452.667,105.833 452,116.5C 451.626,117.416 451.126,118.25 450.5,119C 438.93,120.623 427.264,120.957 415.5,120C 398.243,114.006 390.743,101.839 393,83.5C 396.594,72.4085 403.761,64.7418 414.5,60.5 Z"/></g>
<g><path style="opacity:1" fill="#f8f9fb" d="M 488.5,60.5 C 500.295,58.3797 510.462,61.3797 519,69.5C 519.692,76.3921 516.859,78.2255 510.5,75C 504.314,69.7063 497.314,68.373 489.5,71C 485.006,73.467 484.34,76.8003 487.5,81C 495.732,83.9831 504.065,86.6498 512.5,89C 521.946,95.0134 523.78,102.847 518,112.5C 505.218,122.257 491.718,123.09 477.5,115C 470.515,110.032 470.849,105.865 478.5,102.5C 482.501,105.503 486.834,108.003 491.5,110C 498.564,111.745 504.731,110.245 510,105.5C 511.176,101.74 510.01,98.9066 506.5,97C 498.31,94.879 490.31,92.2123 482.5,89C 472.244,81.1109 471.911,72.7775 481.5,64C 483.925,62.7874 486.259,61.6207 488.5,60.5 Z"/></g>
<g><path style="opacity:1" fill="#fafbfc" d="M 592.5,93.5 C 578.167,93.5 563.833,93.5 549.5,93.5C 549.263,94.791 549.596,95.791 550.5,96.5C 554.876,107.996 563.209,112.496 575.5,110C 579.101,108.613 582.601,107.113 586,105.5C 590.375,105.92 592.042,108.253 591,112.5C 574.56,124.157 559.227,122.824 545,108.5C 536.123,92.836 537.957,78.6693 550.5,66C 561.078,59.4506 572.078,58.784 583.5,64C 592.687,70.8792 596.52,80.0458 595,91.5C 594.292,92.3805 593.458,93.0472 592.5,93.5 Z"/></g>
<g><path style="opacity:1" fill="#f9fafc" d="M 109.5,60.5 C 112.652,59.9586 115.152,60.9586 117,63.5C 123.411,76.6564 130.078,89.6564 137,102.5C 142.667,89.5 148.333,76.5 154,63.5C 158.499,59.0998 161.999,59.7665 164.5,65.5C 153.163,92.3378 141.163,118.838 128.5,145C 124.269,146.267 121.602,144.767 120.5,140.5C 124.263,131.713 127.93,122.879 131.5,114C 123.802,98.7706 115.969,83.6039 108,68.5C 107.109,65.5024 107.609,62.8357 109.5,60.5 Z"/></g>
<g><path style="opacity:1" fill="#22538f" d="M 307.5,82.5 C 296.215,84.4784 284.548,85.1451 272.5,84.5C 274.832,75.1724 280.832,70.1724 290.5,69.5C 299.38,69.7211 305.046,74.0544 307.5,82.5 Z"/></g>
<g><path style="opacity:1" fill="#22538f" d="M 585.5,84.5 C 573.655,84.8283 561.988,84.4949 550.5,83.5C 552.51,74.4971 558.176,69.8304 567.5,69.5C 577.808,69.4834 583.808,74.4834 585.5,84.5 Z"/></g>
<g><path style="opacity:1" fill="#21528f" d="M 204.5,70.5 C 223.155,68.6557 231.655,76.989 230,95.5C 225.345,108.078 216.512,112.578 203.5,109C 197.73,106.305 194.23,101.805 193,95.5C 190.921,84.3305 194.754,75.9972 204.5,70.5 Z"/></g>
<g><path style="opacity:1" fill="#21528f" d="M 416.5,70.5 C 435.143,69.3093 443.31,77.9759 441,96.5C 435.803,108.349 426.969,112.515 414.5,109C 402.832,100.766 400.332,90.2662 407,77.5C 409.825,74.524 412.992,72.1907 416.5,70.5 Z"/></g>
<g><path style="opacity:1" fill="#5b80ac" d="M 307.5,82.5 C 308.404,83.209 308.737,84.209 308.5,85.5C 296.322,85.8284 284.322,85.4951 272.5,84.5C 284.548,85.1451 296.215,84.4784 307.5,82.5 Z"/></g>
<g><path style="opacity:1" fill="#587eab" d="M 550.5,83.5 C 561.988,84.4949 573.655,84.8283 585.5,84.5C 573.66,85.8245 561.66,85.8245 549.5,84.5C 549.624,83.8933 549.957,83.56 550.5,83.5 Z"/></g>
<g><path style="opacity:1" fill="#8da6c6" d="M 592.5,93.5 C 578.304,93.8391 564.304,94.8391 550.5,96.5C 549.596,95.791 549.263,94.791 549.5,93.5C 563.833,93.5 578.167,93.5 592.5,93.5 Z"/></g>
<g><path style="opacity:1" fill="#f6f8fa" d="M 139.5,179.5 C 138.167,179.5 136.833,179.5 135.5,179.5C 135.5,183.167 135.5,186.833 135.5,190.5C 133.833,190.5 132.167,190.5 130.5,190.5C 130.891,185.989 130.225,181.655 128.5,177.5C 129.723,174.884 131.057,172.384 132.5,170C 134.5,169.333 136.5,169.333 138.5,170C 139.337,171.011 139.67,172.178 139.5,173.5C 135.5,174.167 135.5,174.833 139.5,175.5C 139.5,176.833 139.5,178.167 139.5,179.5 Z"/></g>
<g><path style="opacity:1" fill="#f1f4f8" d="M 144.5,169.5 C 146.527,169.338 148.527,169.505 150.5,170C 151.337,171.011 151.67,172.178 151.5,173.5C 147.5,174.167 147.5,174.833 151.5,175.5C 151.5,176.833 151.5,178.167 151.5,179.5C 150.5,179.5 149.5,179.5 148.5,179.5C 148.5,183.167 148.5,186.833 148.5,190.5C 146.5,190.5 144.5,190.5 142.5,190.5C 142.891,185.989 142.225,181.655 140.5,177.5C 141.837,174.758 143.17,172.092 144.5,169.5 Z"/></g>
<g><path style="opacity:1" fill="#adc0d6" d="M 381.5,170.5 C 379.833,170.5 378.167,170.5 376.5,170.5C 376.5,171.5 376.5,172.5 376.5,173.5C 375.566,172.432 375.232,171.099 375.5,169.5C 377.735,169.205 379.735,169.539 381.5,170.5 Z"/></g>
<g><path style="opacity:1" fill="#fefffe" d="M 381.5,170.5 C 381.5,171.5 381.5,172.5 381.5,173.5C 379.833,173.5 378.167,173.5 376.5,173.5C 376.5,172.5 376.5,171.5 376.5,170.5C 378.167,170.5 379.833,170.5 381.5,170.5 Z"/></g>
<g><path style="opacity:1" fill="#f2f5f8" d="M 439.5,169.5 C 441.5,169.5 443.5,169.5 445.5,169.5C 445.337,171.857 445.503,174.19 446,176.5C 449.206,174.876 451.872,175.542 454,178.5C 454.499,182.486 454.666,186.486 454.5,190.5C 452.5,190.5 450.5,190.5 448.5,190.5C 448.665,187.15 448.498,183.817 448,180.5C 447.586,180.043 447.086,179.709 446.5,179.5C 445.511,183.107 445.177,186.774 445.5,190.5C 443.5,190.5 441.5,190.5 439.5,190.5C 439.5,183.5 439.5,176.5 439.5,169.5 Z"/></g>
<g><path style="opacity:1" fill="#f8f9fb" d="M 480.5,170.5 C 480.338,172.527 480.505,174.527 481,176.5C 483.711,175.074 486.211,175.408 488.5,177.5C 489.585,180.773 489.752,184.106 489,187.5C 485.996,191 482.663,191.333 479,188.5C 478.184,189.823 477.017,190.489 475.5,190.5C 475.5,183.833 475.5,177.167 475.5,170.5C 477.167,170.5 478.833,170.5 480.5,170.5 Z"/></g>
<g><path style="opacity:1" fill="#f3f6f9" d="M 492.5,169.5 C 494.167,169.5 495.833,169.5 497.5,169.5C 497.5,170.833 497.5,172.167 497.5,173.5C 495.833,173.5 494.167,173.5 492.5,173.5C 492.5,172.167 492.5,170.833 492.5,169.5 Z"/></g>
<g><path style="opacity:1" fill="#f4f6f9" d="M 539.5,169.5 C 541.5,169.5 543.5,169.5 545.5,169.5C 545.5,176.5 545.5,183.5 545.5,190.5C 541.505,189.35 537.505,189.183 533.5,190C 529.568,185.263 529.568,180.596 533.5,176C 535.441,175.257 537.274,175.424 539,176.5C 539.497,174.19 539.663,171.857 539.5,169.5 Z"/></g>
<g><path style="opacity:1" fill="#f7f9fb" d="M 37.5,170.5 C 41.5138,170.334 45.5138,170.501 49.5,171C 53.2916,173.053 54.4582,176.219 53,180.5C 50.4537,183.186 47.287,184.186 43.5,183.5C 43.5,185.833 43.5,188.167 43.5,190.5C 41.5,190.5 39.5,190.5 37.5,190.5C 37.5,183.833 37.5,177.167 37.5,170.5 Z"/></g>
<g><path style="opacity:1" fill="#f1f4f8" d="M 503.5,170.5 C 504.833,170.5 506.167,170.5 507.5,170.5C 507.5,172.167 507.5,173.833 507.5,175.5C 508.5,175.5 509.5,175.5 510.5,175.5C 510.5,176.833 510.5,178.167 510.5,179.5C 509.5,179.5 508.5,179.5 507.5,179.5C 507.5,182.167 507.5,184.833 507.5,187.5C 508.5,187.5 509.5,187.5 510.5,187.5C 510.5,188.5 510.5,189.5 510.5,190.5C 507.753,190.813 505.086,190.48 502.5,189.5C 501.708,184.769 500.708,180.103 499.5,175.5C 500.5,175.5 501.5,175.5 502.5,175.5C 502.629,173.784 502.962,172.117 503.5,170.5 Z"/></g>
<g><path style="opacity:1" fill="#20528e" d="M 43.5,175.5 C 44.8333,175.5 46.1667,175.5 47.5,175.5C 47.5,176.5 47.5,177.5 47.5,178.5C 46.1667,178.5 44.8333,178.5 43.5,178.5C 43.5,177.5 43.5,176.5 43.5,175.5 Z"/></g>
<g><path style="opacity:1" fill="#f3f6f9" d="M 59.5,175.5 C 70.5155,175.065 73.5155,179.565 68.5,189C 58.8854,192.63 54.7188,189.463 56,179.5C 56.6897,177.65 57.8564,176.316 59.5,175.5 Z"/></g>
<g><path style="opacity:1" fill="#f4f6f9" d="M 126.5,183.5 C 123.287,183.19 120.287,183.523 117.5,184.5C 118.244,187.884 119.577,188.218 121.5,185.5C 123.167,185.5 124.833,185.5 126.5,185.5C 126.376,187.582 125.376,189.082 123.5,190C 112.187,191.693 108.854,187.36 113.5,177C 118.114,174.598 122.281,175.098 126,178.5C 126.494,180.134 126.66,181.801 126.5,183.5 Z"/></g>
<g><path style="opacity:1" fill="#f5f7fa" d="M 155.5,175.5 C 159.584,175.043 163.417,175.71 167,177.5C 167.266,181.993 168.099,186.326 169.5,190.5C 164.503,189.343 159.503,189.176 154.5,190C 151.735,187.034 152.068,184.367 155.5,182C 157.9,181.814 160.234,181.314 162.5,180.5C 162.167,179.5 161.5,178.833 160.5,178.5C 158.49,180.171 156.157,180.838 153.5,180.5C 153.392,178.486 154.058,176.82 155.5,175.5 Z"/></g>
<g><path style="opacity:1" fill="#f4f6f9" d="M 175.5,175.5 C 178.271,175.421 180.937,175.921 183.5,177C 185.037,178.11 185.703,179.61 185.5,181.5C 182.436,181.072 179.436,180.406 176.5,179.5C 176.337,181.857 176.503,184.19 177,186.5C 178.011,187.337 179.178,187.67 180.5,187.5C 180.5,186.5 180.5,185.5 180.5,184.5C 182.167,184.5 183.833,184.5 185.5,184.5C 185.607,186.903 184.607,188.736 182.5,190C 173.834,191.664 170,188.164 171,179.5C 172.397,177.93 173.897,176.596 175.5,175.5 Z"/></g>
<g><path style="opacity:1" fill="#f4f6f9" d="M 202.5,183.5 C 199.287,183.19 196.287,183.523 193.5,184.5C 193.5,185.5 193.5,186.5 193.5,187.5C 195.38,187.771 196.713,187.104 197.5,185.5C 199.167,185.5 200.833,185.5 202.5,185.5C 202.376,187.582 201.376,189.082 199.5,190C 189.667,192.167 185.833,188.333 188,178.5C 191.685,175.023 195.851,174.523 200.5,177C 202.229,178.789 202.896,180.956 202.5,183.5 Z"/></g>
<g><path style="opacity:1" fill="#f6f8fa" d="M 245.5,175.5 C 255.616,175.431 258.616,179.931 254.5,189C 244.921,192.736 240.421,189.569 241,179.5C 242.397,177.93 243.897,176.596 245.5,175.5 Z"/></g>
<g><path style="opacity:1" fill="#eef2f6" d="M 261.5,175.5 C 265.257,175.071 268.757,175.737 272,177.5C 272.483,178.448 272.649,179.448 272.5,180.5C 268.757,180.459 268.59,181.126 272,182.5C 273.212,185.834 272.379,188.334 269.5,190C 266.5,190.667 263.5,190.667 260.5,190C 258.963,188.89 258.297,187.39 258.5,185.5C 261.09,185.396 263.423,186.063 265.5,187.5C 266.167,187.167 266.833,186.833 267.5,186.5C 264.519,185.388 261.686,184.054 259,182.5C 258.333,181.167 258.333,179.833 259,178.5C 260.045,177.627 260.878,176.627 261.5,175.5 Z"/></g>
<g><path style="opacity:1" fill="#f3f6f9" d="M 280.5,175.5 C 282.766,175.141 284.599,175.808 286,177.5C 288.667,174.833 291.333,174.833 294,177.5C 296.667,174.833 299.333,174.833 302,177.5C 302.499,181.821 302.666,186.154 302.5,190.5C 300.833,190.5 299.167,190.5 297.5,190.5C 297.915,186.625 297.415,182.958 296,179.5C 294.585,182.958 294.085,186.625 294.5,190.5C 292.5,190.5 290.5,190.5 288.5,190.5C 287.833,175.833 287.167,175.833 286.5,190.5C 284.5,190.5 282.5,190.5 280.5,190.5C 280.5,185.5 280.5,180.5 280.5,175.5 Z"/></g>
<g><path style="opacity:1" fill="#eef2f6" d="M 308.5,175.5 C 311.518,175.335 314.518,175.502 317.5,176C 318.333,176.833 319.167,177.667 320,178.5C 320.313,182.657 321.147,186.657 322.5,190.5C 319.606,190.958 317.106,190.291 315,188.5C 312.24,190.703 309.24,191.036 306,189.5C 304.752,182.909 307.585,179.909 314.5,180.5C 314.167,179.5 313.5,178.833 312.5,178.5C 310.401,180.534 308.068,180.868 305.5,179.5C 306.172,177.84 307.172,176.507 308.5,175.5 Z"/></g>
<g><path style="opacity:1" fill="#f0f3f7" d="M 360.5,175.5 C 363.518,175.335 366.518,175.502 369.5,176C 370.333,176.833 371.167,177.667 372,178.5C 372.313,182.657 373.147,186.657 374.5,190.5C 371.635,190.945 369.135,190.278 367,188.5C 364.24,190.703 361.24,191.036 358,189.5C 356.752,182.909 359.585,179.909 366.5,180.5C 363.557,180.466 360.557,180.133 357.5,179.5C 358.524,178.148 359.524,176.815 360.5,175.5 Z"/></g>
<g><path style="opacity:1" fill="#ebeff5" d="M 388.5,185.5 C 384.746,184.228 383.58,181.561 385,177.5C 389.665,174.544 393.998,174.878 398,178.5C 398.167,178.833 398.333,179.167 398.5,179.5C 395.794,180.793 393.294,180.459 391,178.5C 390.5,178.833 390,179.167 389.5,179.5C 391.657,180.79 393.99,181.624 396.5,182C 399.265,184.966 398.932,187.633 395.5,190C 392.167,190.667 388.833,190.667 385.5,190C 383.963,188.89 383.297,187.39 383.5,185.5C 385.167,185.5 386.833,185.5 388.5,185.5 Z"/></g>
<g><path style="opacity:1" fill="#f2f5f8" d="M 415.5,183.5 C 412.287,183.19 409.287,183.523 406.5,184.5C 406.5,185.5 406.5,186.5 406.5,187.5C 408.38,187.771 409.713,187.104 410.5,185.5C 412.167,185.5 413.833,185.5 415.5,185.5C 415.141,187.371 414.141,188.871 412.5,190C 402.498,191.999 398.665,188.166 401,178.5C 404.685,175.023 408.851,174.523 413.5,177C 415.016,178.897 415.683,181.064 415.5,183.5 Z"/></g>
<g><path style="opacity:1" fill="#eff2f7" d="M 420.5,175.5 C 424.257,175.071 427.757,175.737 431,177.5C 431.483,178.448 431.649,179.448 431.5,180.5C 427.757,180.459 427.59,181.126 431,182.5C 432.212,185.834 431.379,188.334 428.5,190C 425.5,190.667 422.5,190.667 419.5,190C 417.963,188.89 417.297,187.39 417.5,185.5C 420.09,185.396 422.423,186.063 424.5,187.5C 425.167,187.167 425.833,186.833 426.5,186.5C 423.519,185.388 420.686,184.054 418,182.5C 417.333,181.167 417.333,179.833 418,178.5C 419.045,177.627 419.878,176.627 420.5,175.5 Z"/></g>
<g><path style="opacity:1" fill="#f1f4f7" d="M 459.5,175.5 C 462.518,175.335 465.518,175.502 468.5,176C 469.333,176.833 470.167,177.667 471,178.5C 471.313,182.657 472.147,186.657 473.5,190.5C 470.635,190.945 468.135,190.278 466,188.5C 463.24,190.703 460.24,191.036 457,189.5C 455.752,182.909 458.585,179.909 465.5,180.5C 465.167,179.5 464.5,178.833 463.5,178.5C 461.401,180.534 459.068,180.868 456.5,179.5C 457.524,178.148 458.524,176.815 459.5,175.5 Z"/></g>
<g><path style="opacity:1" fill="#f4f6f9" d="M 563.5,183.5 C 560.167,183.5 556.833,183.5 553.5,183.5C 553.263,184.791 553.596,185.791 554.5,186.5C 554.735,187.097 555.235,187.43 556,187.5C 557.011,186.944 557.844,186.278 558.5,185.5C 560.167,185.5 561.833,185.5 563.5,185.5C 562.977,187.708 561.644,189.208 559.5,190C 550.884,191.717 547.051,188.217 548,179.5C 551.771,175.212 556.271,174.379 561.5,177C 563.016,178.897 563.683,181.064 563.5,183.5 Z"/></g>
<g><path style="opacity:1" fill="#eff2f7" d="M 568.5,175.5 C 571.187,175.336 573.854,175.503 576.5,176C 578.439,176.908 579.439,178.408 579.5,180.5C 578.448,180.351 577.448,180.517 576.5,181C 580.002,183.496 580.335,186.329 577.5,189.5C 574.227,190.585 570.894,190.752 567.5,190C 566.313,188.981 565.313,187.814 564.5,186.5C 567.945,186.055 571.278,186.055 574.5,186.5C 571.407,185.64 568.573,184.306 566,182.5C 565.333,181.167 565.333,179.833 566,178.5C 567.045,177.627 567.878,176.627 568.5,175.5 Z"/></g>
<g><path style="opacity:1" fill="#f9fbfc" d="M 87.5,175.5 C 86.9106,179.971 87.5772,183.971 89.5,187.5C 89.5,188.5 89.5,189.5 89.5,190.5C 84.4692,189.539 79.4692,189.206 74.5,189.5C 73.5614,185.235 73.2281,180.902 73.5,176.5C 75.1667,176.5 76.8333,176.5 78.5,176.5C 78.19,179.713 78.5233,182.713 79.5,185.5C 80.1894,186.774 81.0228,186.774 82,185.5C 82.4983,182.183 82.665,178.85 82.5,175.5C 84.1667,175.5 85.8333,175.5 87.5,175.5 Z"/></g>
<g><path style="opacity:1" fill="#a8bcd3" d="M 73.5,176.5 C 75.2646,175.539 77.2646,175.205 79.5,175.5C 79.5,178.833 79.5,182.167 79.5,185.5C 78.5233,182.713 78.19,179.713 78.5,176.5C 76.8333,176.5 75.1667,176.5 73.5,176.5 Z"/></g>
<g><path style="opacity:1" fill="#6f8fb6" d="M 87.5,175.5 C 88.2248,179.395 88.8914,183.395 89.5,187.5C 87.5772,183.971 86.9106,179.971 87.5,175.5 Z"/></g>
<g><path style="opacity:1" fill="#f1f4f8" d="M 91.5,175.5 C 93.7659,175.141 95.5993,175.808 97,177.5C 101.836,174.179 104.336,175.512 104.5,181.5C 102.179,181.771 100.179,181.104 98.5,179.5C 97.5108,183.107 97.1774,186.774 97.5,190.5C 95.5,190.5 93.5,190.5 91.5,190.5C 91.5,185.5 91.5,180.5 91.5,175.5 Z"/></g>
<g><path style="opacity:1" fill="#f8f9fb" d="M 205.5,175.5 C 207.451,175.227 208.951,175.893 210,177.5C 214.895,174.198 217.395,175.532 217.5,181.5C 215.278,181.822 213.444,181.155 212,179.5C 210.585,182.958 210.085,186.625 210.5,190.5C 208.833,190.5 207.167,190.5 205.5,190.5C 205.5,185.5 205.5,180.5 205.5,175.5 Z"/></g>
<g><path style="opacity:1" fill="#f1f4f8" d="M 223.5,175.5 C 225.527,175.338 227.527,175.505 229.5,176C 230.714,178.351 231.548,180.851 232,183.5C 232.452,180.851 233.286,178.351 234.5,176C 236.259,175.202 237.926,175.369 239.5,176.5C 237.853,181.091 236.519,185.757 235.5,190.5C 233.076,190.808 230.743,190.474 228.5,189.5C 226.826,184.81 225.159,180.143 223.5,175.5 Z"/></g>
<g><path style="opacity:1" fill="#f7f9fb" d="M 332.5,176.5 C 334.167,176.5 335.833,176.5 337.5,176.5C 337.187,180.042 337.521,183.375 338.5,186.5C 339.234,187.708 339.567,189.041 339.5,190.5C 336.956,190.896 334.789,190.229 333,188.5C 330,191.167 327,191.167 324,188.5C 323.501,184.179 323.334,179.846 323.5,175.5C 325.5,175.5 327.5,175.5 329.5,175.5C 329.5,179.167 329.5,182.833 329.5,186.5C 330.5,186.5 331.5,186.5 332.5,186.5C 332.5,183.167 332.5,179.833 332.5,176.5 Z"/></g>
<g><path style="opacity:1" fill="#a0b5cf" d="M 332.5,176.5 C 334.265,175.539 336.265,175.205 338.5,175.5C 338.5,179.167 338.5,182.833 338.5,186.5C 337.521,183.375 337.187,180.042 337.5,176.5C 335.833,176.5 334.167,176.5 332.5,176.5 Z"/></g>
<g><path style="opacity:1" fill="#f1f4f8" d="M 340.5,175.5 C 342.604,175.201 344.604,175.534 346.5,176.5C 348.222,184.213 349.555,183.88 350.5,175.5C 352.604,175.201 354.604,175.534 356.5,176.5C 354.849,180.767 353.349,185.1 352,189.5C 349.619,190.435 347.119,190.768 344.5,190.5C 343.571,185.382 342.238,180.382 340.5,175.5 Z"/></g>
<g><path style="opacity:1" fill="#abbed5" d="M 381.5,176.5 C 379.833,176.5 378.167,176.5 376.5,176.5C 376.5,181.167 376.5,185.833 376.5,190.5C 375.513,185.695 375.179,180.695 375.5,175.5C 377.735,175.205 379.735,175.539 381.5,176.5 Z"/></g>
<g><path style="opacity:1" fill="#fefffe" d="M 381.5,176.5 C 381.5,181.167 381.5,185.833 381.5,190.5C 379.833,190.5 378.167,190.5 376.5,190.5C 376.5,185.833 376.5,181.167 376.5,176.5C 378.167,176.5 379.833,176.5 381.5,176.5 Z"/></g>
<g><path style="opacity:1" fill="#fbfcfd" d="M 492.5,175.5 C 494.167,175.5 495.833,175.5 497.5,175.5C 497.5,180.5 497.5,185.5 497.5,190.5C 495.833,190.5 494.167,190.5 492.5,190.5C 492.5,185.5 492.5,180.5 492.5,175.5 Z"/></g>
<g><path style="opacity:1" fill="#f1f4f8" d="M 512.5,175.5 C 514.5,175.5 516.5,175.5 518.5,175.5C 518.5,179.167 518.5,182.833 518.5,186.5C 519.5,186.5 520.5,186.5 521.5,186.5C 521.5,182.833 521.5,179.167 521.5,175.5C 523.5,175.5 525.5,175.5 527.5,175.5C 527.198,180.679 527.865,185.679 529.5,190.5C 526.635,190.945 524.135,190.278 522,188.5C 519,191.167 516,191.167 513,188.5C 512.501,184.179 512.334,179.846 512.5,175.5 Z"/></g>
<g><path style="opacity:1" fill="#366098" d="M 61.5,179.5 C 62.8333,179.5 64.1667,179.5 65.5,179.5C 65.6633,181.857 65.4966,184.19 65,186.5C 64,187.833 63,187.833 62,186.5C 61.5034,184.19 61.3367,181.857 61.5,179.5 Z"/></g>
<g><path style="opacity:1" fill="#396098" d="M 117.5,179.5 C 118.978,179.238 120.311,179.571 121.5,180.5C 120.833,180.833 120.167,181.167 119.5,181.5C 118.287,181.253 117.62,180.586 117.5,179.5 Z"/></g>
<g><path style="opacity:1" fill="#1f518e" d="M 193.5,179.5 C 194.675,179.281 195.675,179.614 196.5,180.5C 194.948,181.798 193.948,181.465 193.5,179.5 Z"/></g>
<g><path style="opacity:1" fill="#305c95" d="M 246.5,179.5 C 247.833,179.5 249.167,179.5 250.5,179.5C 250.663,181.857 250.497,184.19 250,186.5C 249,187.833 248,187.833 247,186.5C 246.503,184.19 246.337,181.857 246.5,179.5 Z"/></g>
<g><path style="opacity:1" fill="#3f669c" d="M 264.5,178.5 C 265.756,178.461 266.756,178.961 267.5,180C 266.167,180.667 264.833,180.667 263.5,180C 264.056,179.617 264.389,179.117 264.5,178.5 Z"/></g>
<g><path style="opacity:1" fill="#1e518e" d="M 406.5,179.5 C 407.675,179.281 408.675,179.614 409.5,180.5C 407.948,181.798 406.948,181.465 406.5,179.5 Z"/></g>
<g><path style="opacity:1" fill="#3e669b" d="M 423.5,178.5 C 424.756,178.461 425.756,178.961 426.5,180C 425.167,180.667 423.833,180.667 422.5,180C 423.056,179.617 423.389,179.117 423.5,178.5 Z"/></g>
<g><path style="opacity:1" fill="#3b639a" d="M 480.5,179.5 C 481.822,179.33 482.989,179.663 484,180.5C 484.667,182.5 484.667,184.5 484,186.5C 483,187.833 482,187.833 481,186.5C 480.503,184.19 480.337,181.857 480.5,179.5 Z"/></g>
<g><path style="opacity:1" fill="#2e5a94" d="M 536.5,179.5 C 537.5,179.5 538.5,179.5 539.5,179.5C 539.5,182.167 539.5,184.833 539.5,187.5C 538.5,187.5 537.5,187.5 536.5,187.5C 536.5,184.833 536.5,182.167 536.5,179.5 Z"/></g>
<g><path style="opacity:1" fill="#365f98" d="M 553.5,179.5 C 554.978,179.238 556.311,179.571 557.5,180.5C 556.833,180.833 556.167,181.167 555.5,181.5C 554.287,181.253 553.62,180.586 553.5,179.5 Z"/></g>
<g><path style="opacity:1" fill="#43699e" d="M 570.5,178.5 C 572.103,178.312 573.437,178.812 574.5,180C 572.537,180.844 571.204,180.344 570.5,178.5 Z"/></g>
<g><path style="opacity:1" fill="#7897bb" d="M 139.5,179.5 C 138.791,180.404 137.791,180.737 136.5,180.5C 136.813,184.042 136.479,187.375 135.5,190.5C 135.5,186.833 135.5,183.167 135.5,179.5C 136.833,179.5 138.167,179.5 139.5,179.5 Z"/></g>
<g><path style="opacity:1" fill="#8ea8c6" d="M 117.5,184.5 C 120.287,183.523 123.287,183.19 126.5,183.5C 126.5,184.167 126.5,184.833 126.5,185.5C 124.833,185.5 123.167,185.5 121.5,185.5C 120.432,184.566 119.099,184.232 117.5,184.5 Z"/></g>
<g><path style="opacity:1" fill="#8ea8c6" d="M 193.5,184.5 C 196.287,183.523 199.287,183.19 202.5,183.5C 202.5,184.167 202.5,184.833 202.5,185.5C 200.833,185.5 199.167,185.5 197.5,185.5C 196.432,184.566 195.099,184.232 193.5,184.5 Z"/></g>
<g><path style="opacity:1" fill="#8ea8c6" d="M 406.5,184.5 C 409.287,183.523 412.287,183.19 415.5,183.5C 415.5,184.167 415.5,184.833 415.5,185.5C 413.833,185.5 412.167,185.5 410.5,185.5C 409.432,184.566 408.099,184.232 406.5,184.5 Z"/></g>
<g><path style="opacity:1" fill="#b7c7db" d="M 480.5,170.5 C 478.833,170.5 477.167,170.5 475.5,170.5C 475.5,177.167 475.5,183.833 475.5,190.5C 474.509,183.687 474.175,176.687 474.5,169.5C 476.735,169.205 478.735,169.539 480.5,170.5 Z"/></g>
<g><path style="opacity:1" fill="#8da6c5" d="M 563.5,183.5 C 563.5,184.167 563.5,184.833 563.5,185.5C 561.833,185.5 560.167,185.5 558.5,185.5C 558.083,184.876 557.416,184.543 556.5,184.5C 555.287,184.747 554.62,185.414 554.5,186.5C 553.596,185.791 553.263,184.791 553.5,183.5C 556.833,183.5 560.167,183.5 563.5,183.5 Z"/></g>
<g><path style="opacity:1" fill="#2f5c95" d="M 117.5,184.5 C 119.099,184.232 120.432,184.566 121.5,185.5C 119.577,188.218 118.244,187.884 117.5,184.5 Z"/></g>
<g><path style="opacity:1" fill="#5173a4" d="M 160.5,183.5 C 163.041,184.623 163.041,185.956 160.5,187.5C 157.875,186.135 157.875,184.802 160.5,183.5 Z"/></g>
<g><path style="opacity:1" fill="#386199" d="M 193.5,184.5 C 195.099,184.232 196.432,184.566 197.5,185.5C 196.713,187.104 195.38,187.771 193.5,187.5C 193.5,186.5 193.5,185.5 193.5,184.5 Z"/></g>
<g><path style="opacity:1" fill="#315d96" d="M 311.5,184.5 C 314.957,184.667 315.29,185.667 312.5,187.5C 311.614,186.675 311.281,185.675 311.5,184.5 Z"/></g>
<g><path style="opacity:1" fill="#3a6299" d="M 363.5,184.5 C 364.5,184.5 365.5,184.5 366.5,184.5C 366.5,185.5 366.5,186.5 366.5,187.5C 365.5,187.5 364.5,187.5 363.5,187.5C 363.5,186.5 363.5,185.5 363.5,184.5 Z"/></g>
<g><path style="opacity:1" fill="#3b639a" d="M 406.5,184.5 C 408.099,184.232 409.432,184.566 410.5,185.5C 409.713,187.104 408.38,187.771 406.5,187.5C 406.5,186.5 406.5,185.5 406.5,184.5 Z"/></g>
<g><path style="opacity:1" fill="#3a629a" d="M 462.5,184.5 C 463.5,184.5 464.5,184.5 465.5,184.5C 465.5,185.5 465.5,186.5 465.5,187.5C 464.5,187.5 463.5,187.5 462.5,187.5C 462.5,186.5 462.5,185.5 462.5,184.5 Z"/></g>
<g><path style="opacity:1" fill="#376098" d="M 558.5,185.5 C 557.844,186.278 557.011,186.944 556,187.5C 555.235,187.43 554.735,187.097 554.5,186.5C 554.62,185.414 555.287,184.747 556.5,184.5C 557.416,184.543 558.083,184.876 558.5,185.5 Z"/></g>
<g><path style="opacity:1" fill="#366198" d="M 388.5,185.5 C 389.978,185.238 391.311,185.571 392.5,186.5C 390.76,187.809 389.427,187.476 388.5,185.5 Z"/></g>
</svg>
